<?xml version="1.0" encoding="utf-8"?>
<!-- Generator: Adobe Illustrator 16.0.4, SVG Export Plug-In . SVG Version: 6.00 Build 0)  -->
<!DOCTYPE svg PUBLIC "-//W3C//DTD SVG 1.1//EN" "http://www.w3.org/Graphics/SVG/1.1/DTD/svg11.dtd">
<svg version="1.1" id="Layer_1" xmlns="http://www.w3.org/2000/svg" xmlns:xlink="http://www.w3.org/1999/xlink" x="0px" y="0px"
	 width="234.333px" height="104.62px" viewBox="0 0 234.333 104.62" enable-background="new 0 0 234.333 104.62"
	 xml:space="preserve">
<g>
	<g>
		<linearGradient id="SVGID_1_" gradientUnits="userSpaceOnUse" x1="4.882812e-04" y1="52.3101" x2="91.0845" y2="52.3101">
			<stop  offset="0" style="stop-color:#FFF33B"/>
			<stop  offset="0.0595" style="stop-color:#FFE029"/>
			<stop  offset="0.1303" style="stop-color:#FFD218"/>
			<stop  offset="0.2032" style="stop-color:#FEC90F"/>
			<stop  offset="0.2809" style="stop-color:#FDC70C"/>
			<stop  offset="0.6685" style="stop-color:#F3903F"/>
			<stop  offset="0.8876" style="stop-color:#ED683C"/>
			<stop  offset="1" style="stop-color:#E93E3A"/>
		</linearGradient>
		<path fill="#F7941E" stroke="url(#SVGID_1_)" stroke-miterlimit="10" d="M58.601,3.657C62.66,2.16,76.063-0.99,81.286,1.32
			c1.505,0.667,3.17,3.937,3.577,5.532c2.942,11.57-2.704,35.563-1.945,47.718c0.759,12.156,6.769,21.66,7.351,25.07
			c0.582,3.412,0.342,10.844-0.572,13.193c-0.916,2.35-17.72,7.588-20.391,7.938c-1.546,0.203-4.151-6.273-4.151-6.273
			l-22.702,6.475c0,0-11.037,1.453-16.506,2.826c-5.471,1.373-14.232-1.969-18.291-4.336c-2-1.168-5.726-4.242-6.78-6.301
			c-0.592-1.158-0.495-3.947,0.38-5.182c0.875-1.236,4.57-1.807,4.57-1.807s3.483-0.158,7.039,0.113
			c3.557,0.27,15.921-1.84,15.921-1.84s2.261-2.111,4.67-3.744c3.567-2.416,14.336-8.289,14.336-8.289l-5.896-34.534
			c0,0-4.224-14.729-3.158-19.498c0.683-3.054,4.859-7.371,6.733-8.535"/>
		<linearGradient id="SVGID_2_" gradientUnits="userSpaceOnUse" x1="92.5024" y1="77.5513" x2="106.5752" y2="77.5513">
			<stop  offset="0" style="stop-color:#FFF33B"/>
			<stop  offset="0.0595" style="stop-color:#FFE029"/>
			<stop  offset="0.1303" style="stop-color:#FFD218"/>
			<stop  offset="0.2032" style="stop-color:#FEC90F"/>
			<stop  offset="0.2809" style="stop-color:#FDC70C"/>
			<stop  offset="0.6685" style="stop-color:#F3903F"/>
			<stop  offset="0.8876" style="stop-color:#ED683C"/>
			<stop  offset="1" style="stop-color:#E93E3A"/>
		</linearGradient>
		<polygon fill="#F7941E" stroke="url(#SVGID_2_)" stroke-miterlimit="10" points="99.539,71.924 100.408,74.877 102.847,72.999 
			101.815,75.899 104.892,75.813 102.354,77.553 104.892,79.292 101.815,79.206 102.847,82.106 100.408,80.229 99.539,83.18 
			98.669,80.229 96.231,82.106 97.263,79.206 94.187,79.292 96.726,77.553 94.187,75.813 97.263,75.899 96.231,72.999 
			98.669,74.877 		"/>
		<linearGradient id="SVGID_3_" gradientUnits="userSpaceOnUse" x1="88.2788" y1="80.3081" x2="100.4727" y2="80.3081">
			<stop  offset="0" style="stop-color:#FFF33B"/>
			<stop  offset="0.0595" style="stop-color:#FFE029"/>
			<stop  offset="0.1303" style="stop-color:#FFD218"/>
			<stop  offset="0.2032" style="stop-color:#FEC90F"/>
			<stop  offset="0.2809" style="stop-color:#FDC70C"/>
			<stop  offset="0.6685" style="stop-color:#F3903F"/>
			<stop  offset="0.8876" style="stop-color:#ED683C"/>
			<stop  offset="1" style="stop-color:#E93E3A"/>
		</linearGradient>
		<path fill="#F7941E" stroke="url(#SVGID_3_)" stroke-miterlimit="10" d="M90.035,83.856c0,0,9.608-4.273,9.931-6.41
			c0.323-2.137-11.105,1.709-11.213,2.029"/>
	</g>
	<g>
		
			<linearGradient id="SVGID_4_" gradientUnits="userSpaceOnUse" x1="2066.5908" y1="52.3101" x2="2157.6748" y2="52.3101" gradientTransform="matrix(-1 0 0 1 2300.9238 0)">
			<stop  offset="0" style="stop-color:#FFF33B"/>
			<stop  offset="0.0595" style="stop-color:#FFE029"/>
			<stop  offset="0.1303" style="stop-color:#FFD218"/>
			<stop  offset="0.2032" style="stop-color:#FEC90F"/>
			<stop  offset="0.2809" style="stop-color:#FDC70C"/>
			<stop  offset="0.6685" style="stop-color:#F3903F"/>
			<stop  offset="0.8876" style="stop-color:#ED683C"/>
			<stop  offset="1" style="stop-color:#E93E3A"/>
		</linearGradient>
		<path fill="#F7941E" stroke="url(#SVGID_4_)" stroke-miterlimit="10" d="M175.732,3.657c-4.06-1.497-17.463-4.647-22.686-2.337
			c-1.505,0.667-3.17,3.937-3.577,5.532c-2.942,11.57,2.704,35.563,1.945,47.718c-0.759,12.156-6.769,21.66-7.351,25.07
			c-0.582,3.412-0.342,10.844,0.572,13.193c0.916,2.35,17.72,7.588,20.391,7.938c1.546,0.203,4.151-6.273,4.151-6.273l22.702,6.475
			c0,0,11.037,1.453,16.506,2.826c5.471,1.373,14.232-1.969,18.291-4.336c2-1.168,5.726-4.242,6.78-6.301
			c0.592-1.158,0.495-3.947-0.38-5.182c-0.875-1.236-4.57-1.807-4.57-1.807s-3.483-0.158-7.039,0.113
			c-3.557,0.27-15.921-1.84-15.921-1.84s-2.261-2.111-4.67-3.744c-3.567-2.416-14.336-8.289-14.336-8.289l5.896-34.534
			c0,0,4.224-14.729,3.158-19.498c-0.683-3.054-4.859-7.371-6.733-8.535"/>
		
			<linearGradient id="SVGID_5_" gradientUnits="userSpaceOnUse" x1="2159.0928" y1="77.5513" x2="2173.167" y2="77.5513" gradientTransform="matrix(-1 0 0 1 2300.9238 0)">
			<stop  offset="0" style="stop-color:#FFF33B"/>
			<stop  offset="0.0595" style="stop-color:#FFE029"/>
			<stop  offset="0.1303" style="stop-color:#FFD218"/>
			<stop  offset="0.2032" style="stop-color:#FEC90F"/>
			<stop  offset="0.2809" style="stop-color:#FDC70C"/>
			<stop  offset="0.6685" style="stop-color:#F3903F"/>
			<stop  offset="0.8876" style="stop-color:#ED683C"/>
			<stop  offset="1" style="stop-color:#E93E3A"/>
		</linearGradient>
		<polygon fill="#F7941E" stroke="url(#SVGID_5_)" stroke-miterlimit="10" points="134.794,71.924 133.925,74.877 131.486,72.999 
			132.518,75.899 129.441,75.813 131.979,77.553 129.441,79.292 132.518,79.206 131.486,82.106 133.925,80.229 134.794,83.18 
			135.664,80.229 138.102,82.106 137.07,79.206 140.146,79.292 137.607,77.553 140.146,75.813 137.07,75.899 138.102,72.999 
			135.664,74.877 		"/>
		
			<linearGradient id="SVGID_6_" gradientUnits="userSpaceOnUse" x1="2154.8701" y1="80.3081" x2="2167.0635" y2="80.3081" gradientTransform="matrix(-1 0 0 1 2300.9238 0)">
			<stop  offset="0" style="stop-color:#FFF33B"/>
			<stop  offset="0.0595" style="stop-color:#FFE029"/>
			<stop  offset="0.1303" style="stop-color:#FFD218"/>
			<stop  offset="0.2032" style="stop-color:#FEC90F"/>
			<stop  offset="0.2809" style="stop-color:#FDC70C"/>
			<stop  offset="0.6685" style="stop-color:#F3903F"/>
			<stop  offset="0.8876" style="stop-color:#ED683C"/>
			<stop  offset="1" style="stop-color:#E93E3A"/>
		</linearGradient>
		<path fill="#F7941E" stroke="url(#SVGID_6_)" stroke-miterlimit="10" d="M144.298,83.856c0,0-9.608-4.273-9.931-6.41
			c-0.323-2.137,11.105,1.709,11.213,2.029"/>
	</g>
</g>
</svg>
