<?xml version="1.0" encoding="utf-8"?>
<!-- Generator: Adobe Illustrator 16.0.4, SVG Export Plug-In . SVG Version: 6.00 Build 0)  -->
<!DOCTYPE svg PUBLIC "-//W3C//DTD SVG 1.1//EN" "http://www.w3.org/Graphics/SVG/1.1/DTD/svg11.dtd">
<svg version="1.1" id="Layer_1" xmlns="http://www.w3.org/2000/svg" xmlns:xlink="http://www.w3.org/1999/xlink" x="0px" y="0px"
	 width="899.969px" height="275.566px" viewBox="0 0 899.969 275.566" enable-background="new 0 0 899.969 275.566"
	 xml:space="preserve">
<g>
	<line fill="none" stroke="#F1F2F2" stroke-width="2" stroke-miterlimit="10" x1="136.5" y1="7.169" x2="763.469" y2="7.169"/>
	<line fill="none" stroke="#F1F2F2" stroke-width="2" stroke-miterlimit="10" x1="136.5" y1="209.791" x2="763.469" y2="209.791"/>
	<rect x="0" y="225.17" fill="none" width="899.969" height="42"/>
	<text transform="matrix(1 0 0 1 171.1294 255.3672)" fill="#F1F2F2" font-family="'Helvetica'" font-size="42">FREE WORDPRESS THEME</text>
	<g>
		<rect x="298.9" y="32.949" fill="none" width="296.167" height="213.221"/>
		<text transform="matrix(1 0 0 1 341.5186 95.2183)"><tspan x="0" y="0" fill="#F1F2F2" font-family="'Sancreek-Regular'" font-size="76">SUPER </tspan><tspan x="20.503" y="91.2" fill="#F1F2F2" font-family="'Sancreek-Regular'" font-size="76">BOOT</tspan></text>
		<g>
			<path fill="#F1F2F2" d="M242.996,37.875c6.334-2.336,27.249-7.25,35.396-3.646c2.35,1.04,4.947,6.142,5.582,8.632
				c4.592,18.055-4.22,55.492-3.035,74.459c1.184,18.967,10.562,33.797,11.471,39.12s0.533,16.918-0.895,20.586
				c-1.429,3.666-27.648,11.838-31.816,12.385c-2.412,0.316-6.478-9.789-6.478-9.789l-35.424,10.102c0,0-17.221,2.27-25.755,4.41
				c-8.535,2.143-22.208-3.07-28.541-6.766c-3.119-1.82-8.934-6.619-10.579-9.832c-0.924-1.805-0.772-6.156,0.593-8.084
				s7.131-2.82,7.131-2.82s5.436-0.244,10.984,0.178s24.842-2.871,24.842-2.871s3.527-3.293,7.287-5.842
				c5.566-3.77,22.369-12.934,22.369-12.934l-9.199-53.884c0,0-6.591-22.985-4.928-30.424c1.064-4.767,7.583-11.503,10.506-13.319"
				/>
			<polygon fill="#F1F2F2" points="306.875,144.398 308.231,149.004 312.036,146.074 310.426,150.598 315.226,150.465 
				311.265,153.18 315.226,155.893 310.426,155.76 312.036,160.283 308.231,157.355 306.875,161.961 305.517,157.355 
				301.712,160.283 303.322,155.76 298.523,155.893 302.484,153.18 298.523,150.465 303.322,150.598 301.712,146.074 
				305.517,149.004 			"/>
			<path fill="#F1F2F2" d="M292.044,163.014c0,0,14.993-6.668,15.496-10c0.504-3.334-17.329,2.666-17.496,3.166"/>
		</g>
		<g>
			<path fill="#F1F2F2" d="M656.974,37.875c-6.334-2.336-27.249-7.25-35.396-3.646c-2.35,1.04-4.947,6.142-5.582,8.632
				c-4.592,18.055,4.22,55.492,3.035,74.459c-1.184,18.967-10.562,33.797-11.471,39.12s-0.533,16.918,0.895,20.586
				c1.429,3.666,27.648,11.838,31.816,12.385c2.412,0.316,6.478-9.789,6.478-9.789l35.424,10.102c0,0,17.221,2.27,25.755,4.41
				c8.535,2.143,22.208-3.07,28.541-6.766c3.119-1.82,8.934-6.619,10.579-9.832c0.924-1.805,0.772-6.156-0.593-8.084
				s-7.131-2.82-7.131-2.82s-5.436-0.244-10.984,0.178s-24.842-2.871-24.842-2.871s-3.527-3.293-7.287-5.842
				c-5.566-3.77-22.369-12.934-22.369-12.934l9.199-53.884c0,0,6.591-22.985,4.928-30.424c-1.064-4.767-7.583-11.503-10.506-13.319"
				/>
			<polygon fill="#F1F2F2" points="593.095,144.398 591.739,149.004 587.934,146.074 589.543,150.598 584.744,150.465 
				588.705,153.18 584.744,155.893 589.543,155.76 587.934,160.283 591.739,157.355 593.095,161.961 594.453,157.355 
				598.257,160.283 596.648,155.76 601.447,155.893 597.486,153.18 601.447,150.465 596.648,150.598 598.257,146.074 
				594.453,149.004 			"/>
			<path fill="#F1F2F2" d="M607.925,163.014c0,0-14.993-6.668-15.496-10c-0.504-3.334,17.329,2.666,17.496,3.166"/>
		</g>
	</g>
</g>
</svg>
